<svg width="132" height="79" viewBox="0 0 132 79" fill="none" xmlns="http://www.w3.org/2000/svg">
<path d="M120.027 69.9983C120.027 72.6241 119.956 74.879 120.056 77.1339C120.109 78.4114 119.65 78.8824 118.431 78.7176C118.29 78.6999 118.137 78.7176 117.99 78.7176C114.357 78.6881 114.911 78.9766 114.899 75.715C114.869 70.434 114.869 65.1589 114.899 59.8779C114.917 56.4985 114.381 56.8694 117.913 56.7988C119.203 56.7752 120.474 56.6339 120.08 58.7298C123.683 55.8509 127.245 55.8156 129.676 58.4413C132.355 61.338 132.384 67.3019 129.729 70.2515C127.28 72.9715 123.801 72.9773 120.027 69.9983V69.9983ZM126.627 64.3876C126.627 62.3035 125.013 60.6138 123.088 60.6668C121.281 60.7198 119.774 62.3977 119.762 64.3817C119.75 66.513 121.275 68.0849 123.312 68.0319C125.231 67.9848 126.632 66.4482 126.627 64.3876Z" fill="white"/>
<path d="M41.159 58.8293C44.7327 55.8915 48.2416 55.8091 50.6966 58.3407C53.4343 61.1608 53.5874 67.107 50.9969 70.139C48.5948 72.9532 45.0918 73.0062 41.4534 70.2803C40.9235 73.1122 38.6981 71.711 37.1968 71.8876C35.3894 72.0937 36.0723 70.5217 36.0664 69.6857C36.0076 63.7512 36.1312 57.8108 35.9899 51.8763C35.931 49.4448 37.4794 50.0983 38.7393 50.0336C40.0758 49.9629 41.4004 49.7392 41.2002 51.9293C41.0001 54.0959 41.159 56.2919 41.159 58.8352V58.8293ZM47.7765 64.3223C47.7353 62.1852 46.1928 60.6544 44.1675 60.7486C42.3012 60.8311 40.8764 62.4619 40.9177 64.4695C40.9589 66.6066 42.4955 68.1197 44.5384 68.0314C46.4342 67.9489 47.8177 66.3652 47.7765 64.3223V64.3223Z" fill="white"/>
<path d="M94.7699 58.83C96.5538 56.6988 98.6144 55.8392 101.117 56.8931C103.619 57.941 104.361 60.1547 104.449 62.6156C104.537 65.1767 104.425 67.7495 104.496 70.3105C104.531 71.5233 104.19 72.0944 102.895 71.9531C102.17 71.8706 101.429 71.8883 100.699 71.9531C99.627 72.0473 99.3032 71.588 99.3327 70.5577C99.3915 68.4324 99.3739 66.307 99.3444 64.1817C99.3091 61.8797 98.426 60.6669 96.8246 60.8023C94.8288 60.9731 94.4049 62.3919 94.4108 64.0934C94.4167 66.1481 94.3343 68.2028 94.4402 70.2516C94.5109 71.6234 94.0222 72.1238 92.6917 71.9589C92.1147 71.8883 91.5083 71.8824 90.9372 71.9589C89.5183 72.1532 89.2358 71.488 89.2475 70.1986C89.3064 64.0404 89.3123 57.8822 89.2475 51.7239C89.2299 50.3345 89.7185 49.9754 91.0255 50.0048C95.182 50.099 94.3342 49.6987 94.4167 53.3783C94.452 54.9914 94.4343 56.6046 94.4579 58.2119C94.4579 58.3296 94.5756 58.4474 94.7817 58.8359L94.7699 58.83Z" fill="white"/>
<path d="M65.3152 65.7595C63.7727 65.7595 62.2361 65.7889 60.6936 65.7536C59.5514 65.73 59.469 66.2423 59.9047 67.1077C60.8172 68.9034 63.5843 69.6393 64.9678 68.1086C66.3926 66.5425 67.8232 67.1607 69.3422 67.3314C70.243 67.4315 70.4667 67.8907 69.978 68.6737C69.8603 68.8621 69.7602 69.0564 69.6307 69.2389C67.6054 72.1355 62.6364 73.2071 58.8037 71.5704C55.336 70.0926 53.6464 66.7132 54.3646 62.7098C55.0122 59.1008 58.056 56.6693 62.1066 56.5163C67.3699 56.322 70.7552 59.2245 71.0201 64.0875C71.0849 65.2767 70.8199 65.8772 69.4835 65.7889C68.0941 65.6947 66.6987 65.7654 65.3034 65.7713L65.3152 65.7595ZM62.7365 63.1219C63.0309 63.1219 63.337 63.1749 63.6137 63.1102C64.3379 62.9394 65.4977 63.6224 65.7214 62.6686C65.9687 61.6148 65.0444 60.7905 64.1142 60.296C63.0839 59.7543 61.9947 59.7661 60.9821 60.3902C60.2049 60.8729 59.4926 61.5912 59.6574 62.5096C59.8635 63.6753 60.9644 62.9276 61.6473 63.1102C61.9888 63.1985 62.3774 63.1278 62.7424 63.1278L62.7365 63.1219Z" fill="white"/>
<path d="M28.1303 69.3801C26.0933 71.8411 24.2211 72.9244 21.7013 72C19.0343 71.0227 18.1747 68.8208 18.0746 66.2598C17.9686 63.6223 18.0746 60.9788 18.0099 58.3413C17.9804 57.2168 18.3337 56.6987 19.5053 56.8105C20.1588 56.8753 20.8358 56.893 21.4834 56.8105C22.9141 56.6162 23.2202 57.2639 23.1554 58.565C23.0554 60.5373 23.1025 62.5272 23.1378 64.5054C23.1672 66.1892 23.3497 67.9613 25.5634 67.9848C27.7182 68.0084 28.0832 66.3599 28.0891 64.6055C28.095 62.5508 28.1539 60.4961 28.0714 58.4472C28.0184 57.1932 28.4659 56.6751 29.7022 56.8282C29.7729 56.84 29.8494 56.8282 29.9201 56.8282C32.1298 56.7732 33.2347 57.8251 33.2347 59.9838C33.2347 62.9923 33.2582 66.0008 33.2288 69.0034C33.1935 72.3768 33.7233 71.847 30.3616 71.9647C28.8898 72.0177 27.677 71.9412 28.1362 69.386L28.1303 69.3801Z" fill="white"/>
<path d="M79.8453 72.3886C77.349 72.4651 75.206 72.0413 73.5575 70.3398C72.751 69.5038 71.9856 68.4735 72.5567 67.243C72.8334 66.6366 76.2363 67.1783 76.6955 67.8965C77.6493 69.3978 79.0564 69.492 80.5694 69.2447C81.3525 69.1152 81.9471 68.6089 82.006 67.7905C82.0766 66.9016 81.3996 66.4541 80.6578 66.3069C79.3625 66.0479 78.0437 65.9301 76.7426 65.7358C74.1168 65.3414 72.6921 64.105 72.4625 62.0444C72.1917 59.66 73.2985 57.8467 75.7594 56.9695C78.4971 55.9922 81.2347 56.0805 83.8782 57.3757C84.8908 57.8762 85.6562 58.6415 86.133 59.6954C86.6335 60.8081 86.6335 61.5087 85.091 61.3909C83.6957 61.285 82.2356 61.7442 81.2642 60.0663C80.7755 59.2185 79.5686 59.3598 78.603 59.5011C77.8082 59.6188 77.1842 59.9839 77.1724 60.8846C77.1606 61.6912 77.7553 62.0444 78.4323 62.1799C80.016 62.4919 81.6174 62.7038 83.1952 63.0276C85.1911 63.4339 86.816 64.2934 87.0691 66.6072C87.3105 68.8385 86.2037 70.5988 83.9194 71.6115C82.5535 72.212 81.117 72.471 79.8512 72.3827L79.8453 72.3886Z" fill="white"/>
<path d="M8.43699 72.3357C4.43355 72.3122 1.28379 70.1633 0.341804 66.8074C-0.64728 63.2868 0.559638 59.666 3.33261 57.835C6.38228 55.8274 11.469 56.0512 14.0771 58.3178C14.3538 58.5592 14.66 58.7947 14.8425 59.1008C15.4312 60.1135 16.6852 61.0613 15.7433 62.3625C15.1486 63.1867 11.7869 62.7157 11.0804 61.8797C9.67923 60.2312 7.67751 60.031 6.27631 61.4028C4.67493 62.9747 4.68671 65.8419 6.29397 67.3668C7.66574 68.6679 9.76165 68.45 11.1334 66.8663C11.781 66.1186 15.2428 65.8243 15.8551 66.4954C16.3379 67.0253 16.0141 67.5846 15.8021 68.1262C14.7895 70.7049 11.9047 72.3534 8.43699 72.3357V72.3357Z" fill="white"/>
<path d="M112.114 64.5466C112.114 66.5188 112.055 68.4911 112.138 70.4575C112.185 71.6056 111.814 72.0648 110.654 71.9411C109.93 71.8646 109.188 71.8764 108.464 71.9411C107.375 72.0353 107.098 71.5349 107.11 70.5282C107.151 66.513 107.163 62.4977 107.104 58.4825C107.086 57.2403 107.499 56.8753 108.729 56.8517C112.114 56.7928 112.114 56.734 112.114 60.1663C112.114 61.6264 112.114 63.0865 112.114 64.5466V64.5466Z" fill="white"/>
<path d="M109.594 55.074C108.087 54.8797 106.874 54.2262 106.816 52.4188C106.757 50.6585 107.758 49.7224 109.43 49.5458C111.037 49.375 112.467 50.7115 112.485 52.2716C112.503 53.7317 111.208 55.0328 109.594 55.074Z" fill="white"/>
<path d="M52.5159 31.8542V7.96308H76.4129V31.8542H83.831V0.539062H45.0978V39.2782H76.4129V31.8542H52.5159Z" fill="#145DA0"/>
<path d="M86.8277 34.5801H79.1388V42.269H86.8277V34.5801Z" fill="#145DA0"/>
</svg>
