<svg width="91" height="54" viewBox="0 0 91 54" fill="none" xmlns="http://www.w3.org/2000/svg">
<path d="M82.9946 47.6221C82.9946 49.4223 82.9462 50.9683 83.0148 52.5142C83.0512 53.3902 82.7363 53.7131 81.9008 53.6001C81.8039 53.5879 81.6989 53.6001 81.598 53.6001C79.1075 53.5799 79.487 53.7777 79.4789 51.5415C79.4587 47.9208 79.4587 44.3041 79.4789 40.6834C79.491 38.3664 79.1237 38.6207 81.5456 38.5723C82.4295 38.5562 83.3014 38.4593 83.031 39.8963C85.5013 37.9224 87.9433 37.8982 89.6104 39.6985C91.447 41.6844 91.4672 45.7734 89.6467 47.7956C87.9676 49.6605 85.582 49.6645 82.9946 47.6221ZM87.5195 43.7753C87.5195 42.3464 86.4135 41.1879 85.0936 41.2243C83.8544 41.2606 82.8211 42.411 82.813 43.7713C82.8049 45.2325 83.8504 46.3102 85.247 46.2739C86.5629 46.2416 87.5236 45.1881 87.5195 43.7753Z" fill="#1A1A1A"/>
<path d="M28.9221 39.9649C31.3722 37.9507 33.778 37.8942 35.4612 39.6299C37.3381 41.5634 37.4431 45.6402 35.667 47.719C34.0202 49.6484 31.6185 49.6847 29.1239 47.8159C28.7606 49.7574 27.2349 48.7967 26.2056 48.9178C24.9664 49.0591 25.4346 47.9814 25.4306 47.4082C25.3902 43.3394 25.475 39.2666 25.3781 35.1979C25.3377 33.5308 26.3993 33.9789 27.2631 33.9345C28.1794 33.886 29.0876 33.7326 28.9504 35.2342C28.8131 36.7196 28.9221 38.2252 28.9221 39.969V39.9649ZM33.4591 43.731C33.4308 42.2657 32.3733 41.2162 30.9847 41.2808C29.7052 41.3373 28.7284 42.4554 28.7566 43.8319C28.7849 45.2971 29.8384 46.3345 31.239 46.2739C32.5388 46.2174 33.4873 45.1316 33.4591 43.731Z" fill="#1A1A1A"/>
<path d="M65.6782 39.9649C66.9013 38.5037 68.3141 37.9143 70.0296 38.6369C71.745 39.3554 72.2536 40.8731 72.3142 42.5603C72.3747 44.3162 72.298 46.0801 72.3465 47.836C72.3707 48.6675 72.1366 49.059 71.2486 48.9622C70.7521 48.9056 70.2435 48.9177 69.743 48.9622C69.0083 49.0267 68.7863 48.7119 68.8065 48.0055C68.8469 46.5483 68.8348 45.0912 68.8146 43.634C68.7904 42.0558 68.1849 41.2242 67.087 41.3171C65.7186 41.4341 65.428 42.4069 65.432 43.5735C65.4361 44.9822 65.3795 46.3909 65.4522 47.7956C65.5006 48.7361 65.1656 49.0792 64.2534 48.9662C63.8578 48.9177 63.442 48.9137 63.0505 48.9662C62.0777 49.0994 61.884 48.6433 61.892 47.7593C61.9324 43.5371 61.9364 39.315 61.892 35.0929C61.8799 34.1403 62.215 33.894 63.1111 33.9142C65.9608 33.9788 65.3795 33.7043 65.4361 36.2271C65.4603 37.3331 65.4482 38.4391 65.4643 39.541C65.4643 39.6218 65.545 39.7025 65.6863 39.9689L65.6782 39.9649Z" fill="#1A1A1A"/>
<path d="M45.4838 44.7159C44.4262 44.7159 43.3727 44.736 42.3152 44.7118C41.5321 44.6957 41.4756 45.0468 41.7743 45.6402C42.3999 46.8713 44.2971 47.3759 45.2456 46.3264C46.2225 45.2527 47.2033 45.6765 48.2447 45.7936C48.8623 45.8622 49.0157 46.1771 48.6807 46.7139C48.5999 46.8431 48.5313 46.9763 48.4425 47.1014C47.054 49.0873 43.6472 49.822 41.0195 48.6998C38.642 47.6867 37.4835 45.3698 37.976 42.625C38.42 40.1506 40.5068 38.4836 43.2839 38.3786C46.8925 38.2454 49.2135 40.2354 49.3951 43.5695C49.4395 44.3849 49.2579 44.7966 48.3416 44.736C47.389 44.6715 46.4324 44.7199 45.4757 44.7239L45.4838 44.7159ZM43.7158 42.9075C43.9176 42.9075 44.1275 42.9438 44.3172 42.8994C44.8137 42.7824 45.6089 43.2506 45.7623 42.5967C45.9318 41.8742 45.2981 41.3091 44.6603 40.97C43.954 40.5987 43.2072 40.6067 42.5129 41.0346C41.9801 41.3656 41.4917 41.858 41.6047 42.4877C41.746 43.2869 42.5008 42.7743 42.9691 42.8994C43.2032 42.96 43.4696 42.9116 43.7199 42.9116L43.7158 42.9075Z" fill="#1A1A1A"/>
<path d="M19.9895 47.1982C18.5928 48.8855 17.3092 49.6282 15.5816 48.9945C13.7531 48.3244 13.1638 46.8148 13.0952 45.0589C13.0225 43.2506 13.0952 41.4382 13.0508 39.6299C13.0306 38.8589 13.2728 38.5037 14.076 38.5804C14.5241 38.6248 14.9883 38.6369 15.4323 38.5804C16.4131 38.4472 16.623 38.8912 16.5786 39.7833C16.51 41.1355 16.5423 42.4998 16.5665 43.856C16.5867 45.0105 16.7118 46.2254 18.2296 46.2416C19.7069 46.2577 19.9572 45.1275 19.9612 43.9247C19.9652 42.5159 20.0056 41.1072 19.9491 39.7025C19.9128 38.8428 20.2195 38.4875 21.0672 38.5925C21.1156 38.6006 21.1681 38.5925 21.2165 38.5925C22.7316 38.5548 23.4891 39.276 23.4891 40.756C23.4891 42.8187 23.5052 44.8813 23.485 46.9399C23.4608 49.2528 23.8241 48.8895 21.5193 48.9702C20.5102 49.0066 19.6786 48.9541 19.9935 47.2023L19.9895 47.1982Z" fill="#1A1A1A"/>
<path d="M55.4458 49.261C53.7343 49.3135 52.2651 49.0228 51.1349 47.8563C50.5819 47.2831 50.0571 46.5768 50.4487 45.7331C50.6384 45.3174 52.9715 45.6887 53.2863 46.1812C53.9402 47.2105 54.9049 47.2751 55.9423 47.1055C56.4791 47.0167 56.8868 46.6696 56.9272 46.1085C56.9756 45.499 56.5114 45.1922 56.0028 45.0913C55.1148 44.9137 54.2106 44.833 53.3186 44.6998C51.5183 44.4294 50.5415 43.5817 50.3841 42.1689C50.1984 40.5342 50.9573 39.2909 52.6445 38.6895C54.5215 38.0194 56.3984 38.08 58.2108 38.968C58.9051 39.3111 59.4298 39.8359 59.7568 40.5584C60.0999 41.3213 60.0999 41.8016 59.0423 41.7209C58.0857 41.6482 57.0846 41.9631 56.4186 40.8127C56.0836 40.2314 55.2561 40.3283 54.5941 40.4252C54.0492 40.5059 53.6213 40.7562 53.6133 41.3738C53.6052 41.9267 54.0129 42.1689 54.4771 42.2618C55.5629 42.4757 56.6608 42.621 57.7426 42.843C59.1109 43.1215 60.225 43.7109 60.3986 45.2972C60.564 46.827 59.8052 48.0339 58.239 48.7282C57.3026 49.1399 56.3177 49.3175 55.4498 49.257L55.4458 49.261Z" fill="#1A1A1A"/>
<path d="M6.48752 49.2245C3.74273 49.2084 1.58322 47.7351 0.937386 45.4343C0.25926 43.0205 1.08673 40.5381 2.98791 39.2827C5.0788 37.9063 8.5663 38.0597 10.3545 39.6137C10.5442 39.7792 10.7541 39.9407 10.8792 40.1506C11.2828 40.8448 12.1426 41.4947 11.4968 42.3868C11.0891 42.9519 8.78427 42.629 8.2999 42.0558C7.33922 40.9256 5.96682 40.7883 5.00614 41.7288C3.90822 42.8066 3.9163 44.7723 5.01825 45.8178C5.95875 46.7098 7.39573 46.5605 8.33622 45.4747C8.78023 44.962 11.1537 44.7602 11.5735 45.2204C11.9045 45.5836 11.6825 45.9671 11.5371 46.3385C10.8429 48.1064 8.865 49.2366 6.48752 49.2245Z" fill="#1A1A1A"/>
<path d="M77.5697 43.8843C77.5697 45.2365 77.5293 46.5887 77.5858 47.9369C77.6181 48.724 77.3638 49.0389 76.5686 48.9541C76.0722 48.9016 75.5636 48.9097 75.0671 48.9541C74.3203 49.0187 74.1306 48.6756 74.1387 47.9853C74.1669 45.2325 74.175 42.4796 74.1346 39.7267C74.1225 38.875 74.4051 38.6248 75.2487 38.6086C77.5697 38.5683 77.5697 38.5279 77.5697 40.8812C77.5697 41.8822 77.5697 42.8832 77.5697 43.8843Z" fill="#1A1A1A"/>
<path d="M75.8421 37.3897C74.8087 37.2565 73.9772 36.8085 73.9369 35.5693C73.8965 34.3624 74.5827 33.7206 75.7291 33.5995C76.831 33.4824 77.8119 34.3987 77.824 35.4683C77.8361 36.4694 76.9481 37.3615 75.8421 37.3897Z" fill="#1A1A1A"/>
<path d="M36.7085 21.47V5.08998H53.0925V21.47H58.1785V0H31.6226V26.5599H53.0925V21.47H36.7085Z" fill="#145DA0"/>
<path d="M60.2331 23.3389H54.9615V28.6105H60.2331V23.3389Z" fill="#145DA0"/>
</svg>
